<svg width="1246" height="1260" viewBox="0 0 1246 1260" fill="none" xmlns="http://www.w3.org/2000/svg">
<path d="M474.881 576.1C479.392 577.566 481.861 582.411 480.395 586.922C478.929 591.432 474.084 593.901 469.573 592.435C465.063 590.97 462.594 586.125 464.06 581.614C465.525 577.103 470.37 574.634 474.881 576.1Z" fill="#5F23E1"/>
<path d="M471.733 673.575C476.244 672.11 481.088 674.578 482.554 679.089C484.02 683.6 481.551 688.445 477.04 689.911C472.529 691.376 467.684 688.908 466.219 684.397C464.753 679.886 467.222 675.041 471.733 673.575Z" fill="#5F23E1"/>
<path d="M526.453 754.304C529.241 750.467 534.612 749.616 538.449 752.404C542.286 755.192 543.137 760.563 540.349 764.4C537.561 768.237 532.19 769.088 528.353 766.3C524.516 763.512 523.665 758.141 526.453 754.304Z" fill="#5F23E1"/>
<path d="M618.182 787.409C618.182 782.666 622.027 778.821 626.77 778.821C631.513 778.821 635.358 782.666 635.358 787.409C635.358 792.152 631.513 795.997 626.77 795.997C622.027 795.997 618.182 792.152 618.182 787.409Z" fill="#5F23E1"/>
<path d="M771.722 683.315C767.211 681.849 764.742 677.004 766.208 672.493C767.674 667.982 772.519 665.514 777.03 666.979C781.54 668.445 784.009 673.29 782.543 677.801C781.078 682.312 776.233 684.78 771.722 683.315Z" fill="#5F23E1"/>
<path d="M774.908 585.839C770.397 587.305 765.552 584.836 764.086 580.326C762.621 575.815 765.089 570.97 769.6 569.504C774.111 568.038 778.956 570.507 780.422 575.018C781.887 579.529 779.419 584.374 774.908 585.839Z" fill="#5F23E1"/>
<path d="M720.15 505.129C717.362 508.967 711.991 509.817 708.154 507.029C704.317 504.241 703.466 498.871 706.254 495.034C709.042 491.196 714.413 490.346 718.25 493.134C722.087 495.921 722.938 501.292 720.15 505.129Z" fill="#5F23E1"/>
<path d="M628.421 471.978C628.421 476.721 624.576 480.566 619.833 480.566C615.09 480.566 611.245 476.721 611.245 471.978C611.245 467.235 615.09 463.39 619.833 463.39C624.576 463.39 628.421 467.235 628.421 471.978Z" fill="#5F23E1"/>
<path d="M424.911 589.096C432.915 590.008 438.664 597.235 437.753 605.239C436.842 613.243 429.614 618.992 421.61 618.081C413.606 617.17 407.857 609.942 408.768 601.938C409.679 593.934 416.907 588.185 424.911 589.096Z" fill="#5F23E1"/>
<path d="M438.926 713.5C445.937 709.533 454.836 712 458.804 719.011C462.771 726.022 460.303 734.922 453.292 738.889C446.281 742.856 437.382 740.389 433.414 733.378C429.447 726.367 431.915 717.467 438.926 713.5Z" fill="#5F23E1"/>
<path d="M523.404 805.894C526.744 798.563 535.394 795.328 542.725 798.669C550.055 802.009 553.29 810.659 549.95 817.99C546.61 825.32 537.96 828.555 530.629 825.215C523.298 821.875 520.064 813.224 523.404 805.894Z" fill="#5F23E1"/>
<path d="M646.025 830.976C644.418 823.083 649.515 815.381 657.409 813.774C665.303 812.168 673.005 817.265 674.611 825.159C676.218 833.052 671.121 840.754 663.227 842.361C655.333 843.967 647.631 838.87 646.025 830.976Z" fill="#5F23E1"/>
<path d="M821.767 670.328C813.763 669.417 808.013 662.189 808.925 654.185C809.836 646.181 817.064 640.432 825.068 641.343C833.072 642.255 838.821 649.482 837.91 657.486C836.998 665.49 829.771 671.239 821.767 670.328Z" fill="#5F23E1"/>
<path d="M807.752 545.934C800.741 549.901 791.842 547.433 787.874 540.422C783.907 533.411 786.374 524.512 793.386 520.544C800.397 516.577 809.296 519.045 813.263 526.056C817.231 533.067 814.763 541.966 807.752 545.934Z" fill="#5F23E1"/>
<path d="M723.312 453.549C719.972 460.88 711.321 464.114 703.991 460.774C696.66 457.434 693.425 448.784 696.765 441.453C700.105 434.123 708.756 430.888 716.086 434.228C723.417 437.568 726.652 446.218 723.312 453.549Z" fill="#5F23E1"/>
<path d="M600.615 428.42C602.222 436.314 597.125 444.015 589.231 445.622C581.337 447.228 573.636 442.131 572.029 434.237C570.423 426.344 575.52 418.642 583.413 417.035C591.307 415.429 599.009 420.526 600.615 428.42Z" fill="#5F23E1"/>
<path d="M379.17 630.779C390.224 629.367 400.33 637.183 401.742 648.237C403.154 659.292 395.338 669.397 384.284 670.809C373.229 672.221 363.124 664.405 361.712 653.351C360.3 642.297 368.116 632.191 379.17 630.779Z" fill="#5F23E1"/>
<path d="M426.443 774.107C434.556 766.467 447.326 766.851 454.966 774.964C462.606 783.077 462.222 795.847 454.109 803.486C445.996 811.126 433.226 810.743 425.586 802.63C417.947 794.517 418.33 781.746 426.443 774.107Z" fill="#5F23E1"/>
<path d="M548.955 862.295C551.028 851.346 561.585 844.15 572.535 846.223C583.484 848.296 590.68 858.853 588.607 869.803C586.534 880.752 575.977 887.948 565.027 885.875C554.078 883.802 546.882 873.245 548.955 862.295Z" fill="#5F23E1"/>
<path d="M699.852 861.61C695.094 851.533 699.405 839.507 709.481 834.748C719.558 829.989 731.585 834.3 736.343 844.377C741.102 854.454 736.791 866.48 726.714 871.239C716.638 875.998 704.611 871.687 699.852 861.61Z" fill="#5F23E1"/>
<path d="M867.582 628.617C856.528 630.029 846.423 622.213 845.011 611.159C843.599 600.104 851.415 589.999 862.469 588.587C873.524 587.175 883.629 594.991 885.041 606.045C886.453 617.099 878.637 627.205 867.582 628.617Z" fill="#5F23E1"/>
<path d="M820.31 485.271C812.197 492.91 799.426 492.527 791.787 484.414C784.147 476.301 784.531 463.531 792.644 455.891C800.757 448.251 813.527 448.635 821.167 456.748C828.806 464.861 828.423 477.631 820.31 485.271Z" fill="#5F23E1"/>
<path d="M697.835 397.101C695.762 408.05 685.205 415.246 674.256 413.173C663.306 411.1 656.111 400.543 658.184 389.594C660.257 378.644 670.814 371.448 681.763 373.521C692.712 375.595 699.908 386.151 697.835 397.101Z" fill="#5F23E1"/>
<path d="M546.863 397.748C551.622 407.825 547.311 419.852 537.234 424.61C527.157 429.369 515.131 425.058 510.372 414.981C505.613 404.905 509.924 392.878 520.001 388.119C530.078 383.361 542.104 387.672 546.863 397.748Z" fill="#5F23E1"/>
<path d="M341.203 692.329C355.098 686.831 370.82 693.639 376.317 707.535C381.814 721.43 375.006 737.152 361.111 742.649C347.215 748.147 331.494 741.338 325.997 727.443C320.499 713.547 327.307 697.826 341.203 692.329Z" fill="#5F23E1"/>
<path d="M431.931 846.26C439.942 833.645 456.662 829.912 469.277 837.922C481.893 845.933 485.625 862.653 477.615 875.268C469.605 887.883 452.884 891.616 440.269 883.606C427.654 875.595 423.921 858.875 431.931 846.26Z" fill="#5F23E1"/>
<path d="M595.852 917.44C594.918 902.526 606.251 889.678 621.165 888.743C636.079 887.809 648.927 899.142 649.862 914.056C650.796 928.97 639.463 941.818 624.549 942.753C609.635 943.687 596.787 932.354 595.852 917.44Z" fill="#5F23E1"/>
<path d="M770.227 878.709C760.704 867.192 762.321 850.137 773.838 840.614C785.354 831.092 802.41 832.709 811.932 844.225C821.455 855.742 819.838 872.797 808.321 882.32C796.804 891.842 779.749 890.225 770.227 878.709Z" fill="#5F23E1"/>
<path d="M905.662 566.993C891.767 572.49 876.046 565.682 870.548 551.786C865.051 537.891 871.859 522.17 885.754 516.672C899.65 511.175 915.371 517.983 920.868 531.878C926.366 545.774 919.558 561.495 905.662 566.993Z" fill="#5F23E1"/>
<path d="M814.934 413.071C806.923 425.686 790.203 429.419 777.588 421.408C764.973 413.398 761.24 396.678 769.25 384.062C777.261 371.447 793.981 367.714 806.596 375.725C819.211 383.735 822.944 400.456 814.934 413.071Z" fill="#5F23E1"/>
<path d="M651.051 341.881C651.985 356.796 640.652 369.644 625.738 370.578C610.823 371.512 597.976 360.179 597.041 345.265C596.107 330.351 607.44 317.503 622.354 316.568C637.268 315.634 650.116 326.967 651.051 341.881Z" fill="#5F23E1"/>
<path d="M476.564 380.603C486.086 392.12 484.469 409.175 472.953 418.698C461.436 428.22 444.381 426.603 434.858 415.087C425.336 403.57 426.952 386.514 438.469 376.992C449.986 367.47 467.041 369.086 476.564 380.603Z" fill="#5F23E1"/>
<path d="M321.115 769.176C336.571 758.065 358.108 761.587 369.219 777.042C380.331 792.498 376.809 814.036 361.353 825.147C345.897 836.259 324.36 832.737 313.249 817.281C302.137 801.825 305.659 780.288 321.115 769.176Z" fill="#5F23E1"/>
<path d="M460.906 920.221C466.879 902.146 486.373 892.336 504.447 898.309C522.521 904.282 532.331 923.776 526.359 941.85C520.386 959.924 500.892 969.735 482.817 963.762C464.743 957.789 454.933 938.295 460.906 920.221Z" fill="#5F23E1"/>
<path d="M662.806 960.256C657.014 942.123 667.019 922.728 685.152 916.937C703.285 911.145 722.68 921.15 728.472 939.283C734.263 957.416 724.259 976.811 706.126 982.602C687.992 988.394 668.598 978.389 662.806 960.256Z" fill="#5F23E1"/>
<path d="M849.563 874.012C834.219 862.746 830.913 841.175 842.179 825.831C853.445 810.487 875.016 807.181 890.36 818.447C905.704 829.713 909.01 851.284 897.744 866.628C886.478 881.972 864.907 885.278 849.563 874.012Z" fill="#5F23E1"/>
<path d="M925.788 490.032C910.332 501.144 888.795 497.622 877.683 482.166C866.572 466.71 870.093 445.173 885.549 434.062C901.005 422.95 922.542 426.472 933.654 441.928C944.766 457.384 941.244 478.921 925.788 490.032Z" fill="#5F23E1"/>
<path d="M785.997 338.988C780.024 357.062 760.53 366.872 742.456 360.9C724.381 354.927 714.571 335.433 720.544 317.359C726.517 299.284 746.011 289.474 764.085 295.447C782.159 301.42 791.969 320.914 785.997 338.988Z" fill="#5F23E1"/>
<path d="M584.171 298.943C589.963 317.077 579.958 336.471 561.825 342.263C543.692 348.055 524.297 338.05 518.506 319.917C512.714 301.784 522.719 282.389 540.852 276.597C558.985 270.806 578.38 280.81 584.171 298.943Z" fill="#5F23E1"/>
<path d="M397.265 385.216C412.608 396.481 415.914 418.053 404.649 433.397C393.383 448.741 371.812 452.047 356.468 440.781C341.124 429.515 337.818 407.944 349.083 392.6C360.349 377.256 381.921 373.95 397.265 385.216Z" fill="#5F23E1"/>
<path d="M318.575 855.378C333.88 837.835 360.509 836.02 378.052 851.325C395.595 866.63 397.41 893.258 382.105 910.802C366.8 928.345 340.172 930.159 322.628 914.855C305.085 899.55 303.271 872.921 318.575 855.378Z" fill="#5F23E1"/>
<path d="M509.571 991.469C511.641 968.28 532.118 951.16 555.306 953.23C578.495 955.3 595.615 975.777 593.545 998.965C591.475 1022.15 570.998 1039.27 547.81 1037.2C524.621 1035.13 507.501 1014.66 509.571 991.469Z" fill="#5F23E1"/>
<path d="M744.094 989.294C732.139 969.318 738.641 943.432 758.618 931.476C778.595 919.521 804.481 926.024 816.436 946.001C828.392 965.978 821.889 991.864 801.912 1003.82C781.935 1015.77 756.049 1009.27 744.094 989.294Z" fill="#5F23E1"/>
<path d="M932.427 849.756C911.013 840.621 901.058 815.857 910.193 794.443C919.327 773.029 944.092 763.074 965.506 772.209C986.92 781.343 996.874 806.108 987.74 827.522C978.605 848.936 953.841 858.89 932.427 849.756Z" fill="#5F23E1"/>
<path d="M928.402 403.69C913.097 421.234 886.469 423.048 868.926 407.744C851.382 392.439 849.568 365.81 864.872 348.267C880.177 330.724 906.806 328.909 924.349 344.214C941.892 359.519 943.707 386.147 928.402 403.69Z" fill="#5F23E1"/>
<path d="M737.406 267.609C735.336 290.798 714.86 307.918 691.671 305.848C668.482 303.777 651.362 283.301 653.433 260.112C655.503 236.924 675.979 219.804 699.168 221.874C722.357 223.944 739.477 244.42 737.406 267.609Z" fill="#5F23E1"/>
<path d="M502.959 269.755C514.914 289.732 508.411 315.618 488.434 327.573C468.457 339.528 442.571 333.026 430.616 313.049C418.661 293.072 425.164 267.186 445.141 255.231C465.118 243.276 491.004 249.778 502.959 269.755Z" fill="#5F23E1"/>
<path d="M314.438 409.359C335.853 418.494 345.807 443.258 336.672 464.673C327.538 486.087 302.773 496.041 281.359 486.907C259.945 477.772 249.991 453.007 259.125 431.593C268.26 410.179 293.024 400.225 314.438 409.359Z" fill="#5F23E1"/>
<path d="M348.171 959.132C360.311 935.757 389.102 926.649 412.478 938.789C435.853 950.929 444.961 979.72 432.821 1003.1C420.68 1026.47 391.889 1035.58 368.514 1023.44C345.138 1011.3 336.03 982.507 348.171 959.132Z" fill="#5F23E1"/>
<path d="M594.36 1057.72C590.442 1031.67 608.381 1007.38 634.428 1003.46C660.475 999.541 684.767 1017.48 688.685 1043.53C692.603 1069.57 674.664 1093.87 648.617 1097.78C622.57 1101.7 598.278 1083.76 594.36 1057.72Z" fill="#5F23E1"/>
<path d="M851.471 993.028C832.991 974.258 833.226 944.062 851.996 925.582C870.765 907.102 900.962 907.337 919.442 926.106C937.921 944.876 937.687 975.072 918.917 993.552C900.148 1012.03 869.951 1011.8 851.471 993.028Z" fill="#5F23E1"/>
<path d="M1021.44 789.41C995.454 785.088 977.894 760.52 982.217 734.537C986.54 708.554 1011.11 690.995 1037.09 695.318C1063.07 699.641 1080.63 724.208 1076.31 750.191C1071.99 776.174 1047.42 793.733 1021.44 789.41Z" fill="#5F23E1"/>
<path d="M898.133 300.255C885.993 323.63 857.201 332.738 833.826 320.598C810.45 308.458 801.343 279.667 813.483 256.291C825.623 232.916 854.414 223.808 877.79 235.948C901.165 248.088 910.273 276.879 898.133 300.255Z" fill="#5F23E1"/>
<path d="M651.981 201.54C655.899 227.587 637.96 251.879 611.913 255.797C585.866 259.715 561.574 241.776 557.656 215.729C553.738 189.682 571.677 165.39 597.724 161.472C623.771 157.554 648.063 175.493 651.981 201.54Z" fill="#5F23E1"/>
<path d="M394.795 266.368C413.275 285.138 413.04 315.334 394.27 333.814C375.501 352.294 345.304 352.059 326.824 333.29C308.345 314.52 308.579 284.324 327.349 265.844C346.118 247.364 376.315 247.599 394.795 266.368Z" fill="#5F23E1"/>
<path d="M224.905 469.958C250.887 474.28 268.447 498.848 264.124 524.831C259.801 550.814 235.234 568.373 209.251 564.05C183.268 559.727 165.709 535.16 170.031 509.177C174.354 483.194 198.922 465.635 224.905 469.958Z" fill="#5F23E1"/>
<path d="M413.765 1058.71C420.729 1030.87 448.942 1013.95 476.781 1020.91C504.62 1027.87 521.543 1056.09 514.58 1083.93C507.616 1111.77 479.403 1128.69 451.564 1121.72C423.725 1114.76 406.802 1086.55 413.765 1058.71Z" fill="#5F23E1"/>
<path d="M705.923 1099.68C695.194 1073.06 708.071 1042.79 734.686 1032.06C761.302 1021.33 791.576 1034.21 802.306 1060.82C813.036 1087.44 800.158 1117.71 773.543 1128.44C746.928 1139.17 716.653 1126.29 705.923 1099.68Z" fill="#5F23E1"/>
<path d="M966.476 961.346C942.152 946.12 934.775 914.059 950 889.734C965.226 865.409 997.287 858.032 1021.61 873.258C1045.94 888.483 1053.31 920.545 1038.09 944.87C1022.86 969.194 990.801 976.571 966.476 961.346Z" fill="#5F23E1"/>
<path d="M1095.91 696.159C1067.28 698.139 1042.47 676.536 1040.49 647.908C1038.51 619.28 1060.11 594.466 1088.74 592.486C1117.37 590.506 1142.18 612.109 1144.16 640.737C1146.14 669.365 1124.54 694.179 1095.91 696.159Z" fill="#5F23E1"/>
<path d="M832.501 200.565C825.537 228.404 797.324 245.327 769.485 238.364C741.646 231.401 724.723 203.188 731.686 175.348C738.65 147.509 766.863 130.586 794.702 137.55C822.541 144.513 839.464 172.726 832.501 200.565Z" fill="#5F23E1"/>
<path d="M540.305 159.445C551.035 186.061 538.157 216.335 511.542 227.065C484.927 237.795 454.653 224.917 443.923 198.302C433.193 171.687 446.07 141.412 472.686 130.682C499.301 119.952 529.575 132.83 540.305 159.445Z" fill="#5F23E1"/>
<path d="M279.752 297.929C304.077 313.154 311.454 345.216 296.228 369.541C281.003 393.865 248.941 401.242 224.617 386.017C200.292 370.791 192.915 338.73 208.14 314.405C223.366 290.08 255.428 282.703 279.752 297.929Z" fill="#5F23E1"/>
<path d="M150.392 563.087C179.02 561.107 203.834 582.71 205.814 611.338C207.794 639.967 186.191 664.78 157.563 666.76C128.935 668.74 104.121 647.138 102.141 618.509C100.161 589.881 121.764 565.068 150.392 563.087Z" fill="#5F23E1"/>
<path d="M508.258 1147.81C508.794 1116.61 534.515 1091.76 565.707 1092.3C596.9 1092.83 621.752 1118.56 621.216 1149.75C620.68 1180.94 594.959 1205.79 563.767 1205.26C532.574 1204.72 507.722 1179 508.258 1147.81Z" fill="#5F23E1"/>
<path d="M834.749 1116.17C816.848 1090.62 823.049 1055.39 848.6 1037.49C874.15 1019.59 909.374 1025.79 927.275 1051.34C945.176 1076.89 938.975 1112.12 913.424 1130.02C887.874 1147.92 852.65 1141.72 834.749 1116.17Z" fill="#5F23E1"/>
<path d="M1080.48 898.937C1050.98 888.789 1035.29 856.647 1045.44 827.147C1055.59 797.646 1087.73 781.959 1117.23 792.107C1146.73 802.256 1162.42 834.398 1152.27 863.898C1142.12 893.398 1109.98 909.086 1080.48 898.937Z" fill="#5F23E1"/>
<path d="M1151.46 578.631C1121.63 587.76 1090.05 570.978 1080.92 541.146C1071.79 511.315 1088.57 479.731 1118.4 470.602C1148.23 461.472 1179.82 478.255 1188.95 508.086C1198.08 537.918 1181.29 569.501 1151.46 578.631Z" fill="#5F23E1"/>
<path d="M737.933 111.355C737.397 142.547 711.676 167.399 680.484 166.864C649.291 166.328 624.439 140.607 624.975 109.414C625.511 78.2216 651.232 53.3695 682.424 53.9054C713.617 54.4413 738.469 80.1623 737.933 111.355Z" fill="#5F23E1"/>
<path d="M411.405 142.834C429.306 168.384 423.104 203.608 397.554 221.509C372.004 239.41 336.78 233.209 318.879 207.659C300.978 182.108 307.179 146.884 332.729 128.983C358.279 111.082 393.504 117.283 411.405 142.834Z" fill="#5F23E1"/>
<path d="M165.711 360.243C195.212 370.392 210.899 402.534 200.751 432.034C190.602 461.534 158.46 477.222 128.96 467.073C99.4595 456.924 83.772 424.783 93.9207 395.282C104.069 365.782 136.211 350.095 165.711 360.243Z" fill="#5F23E1"/>
<path d="M94.7673 680.503C124.599 671.374 156.183 688.156 165.312 717.988C174.441 747.819 157.659 779.403 127.827 788.532C97.996 797.662 66.4121 780.879 57.2827 751.048C48.1534 721.216 64.9358 689.632 94.7673 680.503Z" fill="#5F23E1"/>
<path d="M629.769 1210.28C622.571 1176.91 643.786 1144.03 677.153 1136.83C710.521 1129.63 743.405 1150.85 750.603 1184.22C757.801 1217.58 736.586 1250.47 703.219 1257.67C669.851 1264.86 636.966 1243.65 629.769 1210.28Z" fill="#5F23E1"/>
<path d="M969.725 1095.25C944.289 1072.48 942.123 1033.41 964.888 1007.97C987.652 982.539 1026.73 980.373 1052.16 1003.14C1077.6 1025.9 1079.76 1064.98 1057 1090.41C1034.24 1115.85 995.161 1118.01 969.725 1095.25Z" fill="#5F23E1"/>
<path d="M1177.43 802.606C1143.47 799.14 1118.75 768.802 1122.22 734.843C1125.68 700.885 1156.02 676.165 1189.98 679.631C1223.94 683.097 1248.66 713.435 1245.19 747.394C1241.73 781.352 1211.39 806.072 1177.43 802.606Z" fill="#5F23E1"/>
<path d="M1173.31 443.651C1143.8 460.807 1105.97 450.793 1088.81 421.282C1071.65 391.772 1081.67 353.941 1111.18 336.785C1140.69 319.628 1178.52 329.643 1195.67 359.153C1212.83 388.663 1202.82 426.494 1173.31 443.651Z" fill="#5F23E1"/>
<path d="M616.31 48.7872C623.508 82.1548 602.293 115.039 568.926 122.237C535.558 129.435 502.673 108.22 495.476 74.8524C488.278 41.4849 509.493 8.60024 542.86 1.40252C576.228 -5.79519 609.113 15.4197 616.31 48.7872Z" fill="#5F23E1"/>
<path d="M276.241 163.651C301.677 186.415 303.843 225.489 281.079 250.925C258.315 276.361 219.241 278.527 193.805 255.763C168.369 232.999 166.203 193.925 188.967 168.489C211.731 143.053 250.805 140.887 276.241 163.651Z" fill="#5F23E1"/>
<path d="M68.6495 456.481C102.608 459.947 127.328 490.285 123.862 524.244C120.396 558.202 90.0577 582.922 56.099 579.456C22.1404 575.991 -2.57905 545.652 0.886659 511.693C4.35237 477.735 34.6908 453.015 68.6495 456.481Z" fill="#5F23E1"/>
<path d="M72.81 815.371C102.32 798.214 140.151 808.229 157.308 837.739C174.464 867.249 164.45 905.08 134.939 922.237C105.429 939.394 67.5984 929.379 50.4418 899.869C33.2852 870.358 43.2998 832.528 72.81 815.371Z" fill="#5F23E1"/>
</svg>
